<svg xmlns="http://www.w3.org/2000/svg" viewBox="0 0 16 16" role="img" aria-label="WhatsApp">
  <path fill="#fff" d="M13.6 2.33A7.9 7.9 0 0 0 8 0a7.95 7.95 0 0 0-6.87 11.9L0 16l4.2-1.1a7.9 7.9 0 0 0 3.8.97h.01A7.95 7.95 0 0 0 16 7.92a7.9 7.9 0 0 0-2.4-5.59ZM8.01 14.54a6.6 6.6 0 0 1-3.36-.92l-.24-.14-2.49.65.66-2.43-.15-.25a6.6 6.6 0 1 1 5.58 3.09Zm3.62-4.94c-.2-.1-1.17-.58-1.35-.65-.18-.06-.32-.1-.45.1-.13.2-.51.65-.63.78-.12.13-.23.15-.43.05-.2-.1-.83-.31-1.58-.98-.59-.52-.98-1.17-1.1-1.36-.11-.2-.01-.31.09-.41.09-.09.2-.23.3-.35.1-.11.13-.2.2-.33.06-.13.03-.25-.02-.35-.05-.1-.45-1.08-.61-1.48-.16-.39-.33-.34-.45-.34h-.38a.73.73 0 0 0-.53.25c-.18.2-.69.68-.69 1.65s.71 1.92.81 2.05c.1.13 1.4 2.14 3.39 3 .47.2.84.33 1.13.42.48.15.91.13 1.25.08.38-.06 1.17-.48 1.34-.94.16-.46.16-.86.11-.94-.05-.08-.18-.13-.38-.23Z"/>
</svg>
